<svg width="22" height="20" viewBox="0 0 22 20" fill="none" xmlns="http://www.w3.org/2000/svg">
<path d="M21.7143 1.40315C21.7143 1.03101 21.5713 0.674114 21.3168 0.410973C21.0623 0.147831 20.7171 0 20.3571 0H1.35714C0.997206 0 0.65201 0.147831 0.397497 0.410973C0.142982 0.674114 0 1.03101 0 1.40315C0 1.77529 0.142982 2.13218 0.397497 2.39532C0.65201 2.65846 0.997206 2.8063 1.35714 2.8063H20.3571C20.7171 2.8063 21.0623 2.65846 21.3168 2.39532C21.5713 2.13218 21.7143 1.77529 21.7143 1.40315Z" fill="white"/>
<path d="M21.7143 18.2413C21.7143 17.8691 21.5713 17.5122 21.3168 17.2491C21.0623 16.986 20.7171 16.8381 20.3571 16.8381H1.35714C0.997206 16.8381 0.65201 16.986 0.397497 17.2491C0.142982 17.5122 0 17.8691 0 18.2413C0 18.6134 0.142982 18.9703 0.397497 19.2335C0.65201 19.4966 0.997206 19.6444 1.35714 19.6444H20.3571C20.7171 19.6444 21.0623 19.4966 21.3168 19.2335C21.5713 18.9703 21.7143 18.6134 21.7143 18.2413Z" fill="white"/>
<path d="M20.3571 8.41846C20.7171 8.41846 21.0623 8.56629 21.3168 8.82943C21.5713 9.09257 21.7143 9.44947 21.7143 9.8216C21.7143 10.1937 21.5713 10.5506 21.3168 10.8138C21.0623 11.0769 20.7171 11.2248 20.3571 11.2248H9.5C9.14006 11.2248 8.79487 11.0769 8.54035 10.8138C8.28584 10.5506 8.14286 10.1937 8.14286 9.8216C8.14286 9.44947 8.28584 9.09257 8.54035 8.82943C8.79487 8.56629 9.14006 8.41846 9.5 8.41846H20.3571Z" fill="white"/>
</svg>
