<svg width="13" height="8" viewBox="0 0 13 8" fill="none" xmlns="http://www.w3.org/2000/svg">
<path d="M12.16 1.20007C12.1604 1.35445 12.1318 1.507 12.0762 1.64649C12.0206 1.78598 11.9394 1.90887 11.8386 2.00614L6.62768 6.99757C6.47228 7.14957 6.27735 7.23267 6.07619 7.23267C5.87502 7.23267 5.6801 7.14957 5.5247 6.99757L0.313745 1.83045C0.136384 1.65504 0.0248484 1.40298 0.00367478 1.12971C-0.0174988 0.85645 0.0534239 0.584369 0.20084 0.373327C0.348257 0.162284 0.560092 0.0295677 0.789744 0.00437304C1.0194 -0.0208216 1.24805 0.0635695 1.42541 0.238981L6.08053 4.85839L10.7356 0.393995C10.8631 0.267625 11.0184 0.187351 11.183 0.162673C11.3476 0.137996 11.5147 0.169946 11.6646 0.254744C11.8144 0.339543 11.9407 0.47364 12.0285 0.641169C12.1163 0.808698 12.1619 1.00265 12.16 1.20007Z" fill="#FF56F6"/>
</svg>
